# xmcd CD database file
#
# Track frame offsets:
#	150
#	16602
#	32870
#	46754
#	63018
#	77666
#	89570
#	100974
#	121979
#
# Disc length: 1847 seconds
#
# Revision: 5
# Processed by: cddbd v1.4PL0 Copyright (c) Steve Scherf et al.
# Submitted via: CDex 1.50beta10
#
DISCID=62073509
DTITLE=Smith, Elliott - Roman Candle
DYEAR=1994
DGENRE=Rock
TTITLE0=Roman Candle
TTITLE1=Condor Ave
TTITLE2=No Name 1
TTITLE3=No Name 2
TTITLE4=No Name 3
TTITLE5=Drive All Over Town
TTITLE6=No Name 4
TTITLE7=Last Call
TTITLE8=Kiwi Maddog 20/20
EXTD=YEAR: 1994
EXTT0=
EXTT1=
EXTT2=
EXTT3=
EXTT4=
EXTT5=
EXTT6=
EXTT7=
EXTT8=
PLAYORDER=
